# xmcd
#
# Track frame offsets: 
#        150
#        16217
#        35700
#        53233
#        69109
#        84144
#        100814
#        119472
#        137108
#        155572
#        173373
#        190797
#
# Disc length: 2899 seconds
#
# Revision: 0
# Processed by: cddbd v1.5.2PL0 Copyright (c) Steve Scherf et al.
# Submitted via: ExactAudioCopy v1.0b3
#
DISCID=8f0b510c
DTITLE=Vivian Green - The Green Room
DYEAR=2012
DGENRE=R&B
TTITLE0=Remedy
TTITLE1=Anything Out There
TTITLE2=X (Feat. Freeway)
TTITLE3=Free As A Bird
TTITLE4=I'm Not Prepared
TTITLE5=Forever
TTITLE6=Supposed To Be Mine
TTITLE7=When Can I See You Again
TTITLE8=Still Here (Feat. Brian Culbertson)
TTITLE9=Heaven
TTITLE10=Faith
TTITLE11=Light The Universe (Feat. Algebra Blessett, Treena Ferebee, L
TTITLE11=aurin Talese and Leah Smith)
EXTD=
EXTT0=
EXTT1=
EXTT2=
EXTT3=
EXTT4=
EXTT5=
EXTT6=
EXTT7=
EXTT8=
EXTT9=
EXTT10=
EXTT11=
PLAYORDER=
